Simulation
nRows=40
nColumns=15
endheader
time  TH_x TH_y TH_z SC_y  SC_z  SC_x  AC_y  AC_z  AC_x  GH_y  GH_z  GH_yy  EL_x  PS_y
5.745  0.000000  0.000000  0.000000  -42.128709707244425  5.4155874616707385  1.150098458251561  58.65159839304647  11.720914656642014  13.623167106503926  13.63521276113289  74.03127293369266  -27.01963676341815  18.586120258057864  120.000000
5.80245  0.000000  0.000000  0.000000  -41.404790647307664  4.670456109195166  -0.32756691556342865  58.376083331920775  11.130676391257833  13.503139151139218  13.398933947920872  72.0773082880679  -26.682944353202895  18.881187377319534  120.000000
5.8599  0.000000  0.000000  0.000000  -40.58255592067234  3.7784715737587535  -2.241224361802316  57.94329985770604  10.56475721927528  13.48822808569353  13.09437442635135  69.53356046722847  -26.095191110883995  19.277764649292315  120.000000
5.91735  0.000000  0.000000  0.000000  -39.723750358216925  2.7926952496130086  -4.4864341248157835  57.314681676949526  10.076058098941294  13.574998726342162  12.724046659915926  66.42512355655286  -25.275502898400116  19.68673498379498  120.000000
5.9748  0.000000  0.000000  0.000000  -38.87141680660235  1.7831827178745623  -6.938962994583465  56.47309168059363  9.723133056502585  13.747496478561008  12.305793684516702  62.793125968793895  -24.251432203647813  19.99886021816765  120.000000
6.03225  0.000000  0.000000  0.000000  -38.044108000250795  0.8259115039547125  -9.466842851569092  55.43707036742179  9.55932062621248  13.97801198693571  11.879315764531128  58.69282178383241  -23.067398662274563  20.117682524027565  120.000000
6.089700000000001  0.000000  0.000000  0.000000  -37.24920239372371  -0.013562224307529703  -11.93973969471937  54.25637392229553  9.623819913224672  14.233934966409477  11.505017456975947  54.19990026235701  -21.78658674396494  19.988714239271797  120.000000
6.14715  0.000000  0.000000  0.000000  -36.501787513953914  -0.6919576578256244  -14.238119842560296  53.00265139576003  9.932936105712876  14.48794327237745  11.26534761903299  49.420150214112624  -20.49084265412468  19.60836498372853  120.000000
6.2046  0.000000  0.000000  0.000000  -35.83626929416293  -1.189634031226764  -16.263896723227003  51.766057815347274  10.473346398950747  14.719743928721092  11.273547655752827  44.493068738014564  -19.283698996001466  19.0181121542444  120.000000
6.26205  0.000000  0.000000  0.000000  -35.301176708543075  -1.513034111302602  -17.9437549517658  50.62991697184194  11.20105164538447  14.919920729095011  11.665033959765415  39.58016473836109  -18.28715898095825  18.282077399711362  120.000000
6.3195  0.000000  0.000000  0.000000  -34.94842045881698  -1.6838321560010605  -19.23294268794407  49.65152396057367  12.047561776708443  15.086231333318961  12.58035589665349  34.842862654313166  -17.631813618094807  17.47721234300922  120.000000
6.37695  0.000000  0.000000  0.000000  -34.80469592737961  -1.7237935621941256  -20.12194757001766  48.86802624395775  12.934434053108603  15.202262290627564  14.14272674896959  30.418878817911207  -17.43939357424665  16.688178838424587  120.000000
6.4344  0.000000  0.000000  0.000000  -34.853747151409635  -1.6627711314137137  -20.625781416411368  48.29416506662729  13.788311265500615  15.244638338617385  16.42861433971884  26.402114460239904  -17.799706142432154  15.996118595844663  120.000000
6.49185  0.000000  0.000000  0.000000  -35.044845241810236  -1.5382453944985264  -20.772780919933005  47.925287358253286  14.552096408333089  15.198799401363203  19.45392459498805  22.839072813106252  -18.7589026818317  15.473369568872906  120.000000
6.549300000000001  0.000000  0.000000  0.000000  -35.31504377910286  -1.386334055690623  -20.60387114750838  47.74749729754656  15.189329050553358  15.054660154430948  23.171102023475868  19.74200430322758  -20.320412949122076  15.168385754946755  120.000000
6.60675  0.000000  0.000000  0.000000  -35.61641120927218  -1.2334058696236319  -20.168544437707173  47.73335830620208  15.678652329246937  14.812145542347535  27.472821108701694  17.09860171895315  -22.44734914194967  15.096129408048267  120.000000
6.6642  0.000000  0.000000  0.000000  -35.92563886452257  -1.0922211686406962  -19.52116501126908  47.84431859519315  16.012123385782186  14.48105400170446  32.19565373704361  14.879819275004767  -25.058479805322644  15.24153333790502  120.000000
6.72165  0.000000  0.000000  0.000000  -36.236393017638896  -0.96573914177216  -18.718757232740966  48.03903641391962  16.192229588732776  14.076370933820915  37.12687105297047  13.043242703719558  -28.019390199161883  15.5673157913775  120.000000
6.7791  0.000000  0.000000  0.000000  -36.54608799938115  -0.85310429682886  -17.816519968275646  48.27687750019708  16.225541541341347  13.618724289418902  42.02152133279656  11.530870380622215  -31.14204555234671  16.01668176659903  120.000000
6.83655  0.000000  0.000000  0.000000  -36.847622471867865  -0.7535261284336854  -16.8637439259389  48.527098908253045  16.12317770673467  13.12810711433788  46.6393176894277  10.276617122087472  -34.21471563740834  16.513197320444146  120.000000
6.894  0.000000  0.000000  0.000000  -37.12196046999132  -0.6653301551479821  -15.900926329641964  48.77544502040687  15.901114266820672  12.619468862428786  50.78981683345712  9.215333253732599  -37.04975709811927  16.968698933737286  120.000000
6.95145  0.000000  0.000000  0.000000  -37.34551390780071  -0.5886870123979744  -14.956812480813186  49.017366981310346  15.576949101745306  12.107482663548138  54.36271725729046  8.291290460908085  -39.52460064264157  17.302204268501534  120.000000
7.008900000000001  0.000000  0.000000  0.000000  -37.50226968090848  -0.5242948184701318  -14.04900758885848  49.251744751608975  15.169586352712923  11.606704009106693  57.32348886793873  7.4659511523235125  -41.59051318257807  17.46719347203754  120.000000
7.06635  0.000000  0.000000  0.000000  -37.59277280350906  -0.4710678205286693  -13.18662088720791  49.47677336347927  14.700589562731336  11.12768836824633  59.671564326672105  6.72023613228242  -43.23952528029917  17.473059132951946  120.000000
7.1238  0.000000  0.000000  0.000000  -37.635159284404686  -0.42605630683303586  -12.372996868088372  49.688310019766654  14.192790501617933  10.676190480371995  61.40728020066059  6.0509291928654365  -44.472526312010714  17.381707442229615  120.000000
7.18125  0.000000  0.000000  0.000000  -37.65689666303726  -0.38593533589932444  -11.6082255345062  49.880772419745625  13.668343368490582  10.253461453008548  62.51124611502025  5.462229605608424  -45.27214652302809  17.27937638305761  120.000000
7.2387  0.000000  0.000000  0.000000  -37.6831584959351  -0.3478149365401739  -10.890488523694344  50.04997042082661  13.146800045285593  9.858149179053285  62.94501371292284  4.958364958387019  -45.59493135133346  17.240696309036657  120.000000
7.29615  0.000000  0.000000  0.000000  -37.72649978685737  -0.30982303500581226  -10.21688577494008  50.19585460561391  12.643648635358097  9.488726623032484  62.67083819334297  4.538527624764322  -45.38342078370593  17.30222514956731  120.000000
7.3536  0.000000  0.000000  0.000000  -37.784325755267744  -0.2721769034438877  -9.584345178394255  50.32195197755695  12.169674545451691  9.144923516165326  61.671117254458274  4.1947473197357485  -44.58484104520119  17.457136903069927  120.000000
7.41105  0.000000  0.000000  0.000000  -37.84416738946124  -0.23520960695357146  -8.990968498520926  50.433817425451146  11.731171196630513  8.827029028291962  59.96092326201393  3.9136444758008184  -43.16989767637426  17.671610863007228  120.000000
7.468500000000001  0.000000  0.000000  0.000000  -37.89224157365037  -0.1988539943370059  -8.43675647121148  50.53650675836108  11.3311386007744  8.534403182331605  57.58640958477834  3.68027646667515  -41.14118335450062  17.90733682218244  120.000000
7.52595  0.000000  0.000000  0.000000  -37.92029837879398  -0.16320534792075528  -7.92316579573577  50.63202307883635  10.970442705618266  8.265347368761526  54.62449034998184  3.48186027281084  -38.54103240334502  18.13798799838856  120.000000
7.5834  0.000000  0.000000  0.000000  -37.92879648375538  -0.12955086924150763  -7.452155298822572  50.71802867032103  10.648798926457491  8.017668663508907  51.184753929136704  3.3092740050320812  -35.457450882204135  18.354733860801495  120.000000
7.64085  0.000000  0.000000  0.000000  -37.92440952464814  -0.1004730424520001  -7.025423663007006  50.789889980779705  10.366143168320887  7.78836128181926  47.40288080145754  3.1563765643159143  -32.01556094336042  18.561278010134917  120.000000
7.6983  0.000000  0.000000  0.000000  -37.916424872729884  -0.07872585908573573  -6.6439319061670865  50.84317026916652  10.123457890168266  7.573562075902667  43.424533272484965  3.018958371082658  -28.357407831920177  18.765207661572223  120.000000
7.75575  0.000000  0.000000  0.000000  -37.913646639499774  -0.0665886344029573  -6.307795202648625  50.8752734924827  9.923017339797507  7.368685218941039  39.38159496030629  2.894070900253324  -24.614094851641283  18.971176500561988  120.000000
7.8132  0.000000  0.000000  0.000000  -37.9230604527014  -0.06621149176901736  -6.016540190127648  50.88562588517675  9.767586944809532  7.1692874473263775  35.390515137550096  2.780037886742402  -20.901903524233717  19.178271140982865  120.000000
7.87065  0.000000  0.000000  0.000000  -37.948794533587126  -0.080724600823361  -5.769611507980688  50.87555299494391  9.659256800578543  6.971965891651394  31.57716873488972  2.6762790474678333  -17.345674244613736  19.38188806827513  120.000000
7.928100000000001  0.000000  0.000000  0.000000  -37.99146516027403  -0.11489094010299927  -5.56691518684739  50.847976962089184  9.598239128834278  6.7749457618208435  28.116662103559953  2.58269617376501  -14.118043335618507  19.57859553392825  120.000000
7.98555  0.000000  0.000000  0.000000  -38.047289053328846  -0.17496852526834486  -5.40908159060118  50.806925725665714  9.582336962583245  6.5778941814096274  25.238584365088897  2.498542711529234  -11.443641818649974  19.771395898296106  120.000000
